<?xml version="1.0" encoding="UTF-8" standalone="no"?>
<!DOCTYPE svg PUBLIC "-//W3C//DTD SVG 1.1//EN" "http://www.w3.org/Graphics/SVG/1.1/DTD/svg11.dtd">
<svg width="100%" height="100%" viewBox="0 0 353 451" version="1.1" xmlns="http://www.w3.org/2000/svg" xmlns:xlink="http://www.w3.org/1999/xlink" xml:space="preserve" xmlns:serif="http://www.serif.com/" style="fill-rule:evenodd;clip-rule:evenodd;stroke-linejoin:round;stroke-miterlimit:2;">
    <g id="Date" transform="matrix(0.546875,0,0,0.1875,0,360.661)">
        <rect x="0" y="0" width="640" height="480" style="fill:none;"/>
        <g transform="matrix(0.871512,0,0,2.54191,-26.037,-610.047)">
            <path d="M46.937,399.555L46.937,267.558L135.986,267.558L135.986,283.135L64.405,283.135L64.405,324.013L126.352,324.013L126.352,339.59L64.405,339.59L64.405,399.555L46.937,399.555Z" style="fill-rule:nonzero;"/>
        </g>
        <g transform="matrix(0.871512,0,0,2.54191,-26.037,-610.047)">
            <path d="M222.063,368.762L238.81,370.833C236.169,380.617 231.277,388.211 224.134,393.613C216.991,399.015 207.867,401.716 196.762,401.716C182.776,401.716 171.686,397.41 163.493,388.796C155.299,380.182 151.202,368.102 151.202,352.555C151.202,336.468 155.344,323.983 163.628,315.099C171.911,306.215 182.656,301.773 195.862,301.773C208.647,301.773 219.092,306.125 227.195,314.829C235.299,323.533 239.35,335.778 239.35,351.565C239.35,352.525 239.32,353.966 239.26,355.887L167.95,355.887C168.55,366.391 171.521,374.435 176.863,380.017C182.206,385.599 188.869,388.391 196.852,388.391C202.795,388.391 207.867,386.83 212.069,383.709C216.27,380.587 219.602,375.605 222.063,368.762ZM168.85,342.561L222.243,342.561C221.523,334.517 219.482,328.485 216.12,324.463C210.958,318.22 204.265,315.099 196.042,315.099C188.598,315.099 182.341,317.59 177.269,322.572C172.196,327.554 169.39,334.217 168.85,342.561Z" style="fill-rule:nonzero;"/>
        </g>
        <g transform="matrix(0.871512,0,0,2.54191,-26.037,-610.047)">
            <path d="M274.105,399.555L259.069,399.555L259.069,267.558L275.276,267.558L275.276,314.649C282.119,306.065 290.853,301.773 301.477,301.773C307.36,301.773 312.927,302.959 318.179,305.33C323.432,307.701 327.754,311.032 331.145,315.324C334.536,319.616 337.193,324.793 339.113,330.856C341.034,336.918 341.995,343.401 341.995,350.304C341.995,366.691 337.943,379.357 329.839,388.301C321.736,397.244 312.012,401.716 300.667,401.716C289.382,401.716 280.528,397.004 274.105,387.58L274.105,399.555ZM273.925,351.025C273.925,362.489 275.486,370.773 278.607,375.875C283.71,384.219 290.613,388.391 299.316,388.391C306.399,388.391 312.522,385.314 317.684,379.162C322.846,373.009 325.428,363.84 325.428,351.655C325.428,339.169 322.951,329.955 317.999,324.013C313.047,318.07 307.06,315.099 300.037,315.099C292.954,315.099 286.831,318.175 281.669,324.328C276.506,330.481 273.925,339.379 273.925,351.025Z" style="fill-rule:nonzero;"/>
        </g>
        <g transform="matrix(0.871512,0,0,2.54191,-26.037,-610.047)">
            <path d="M493.62,383.979L493.62,399.555L406.372,399.555C406.252,395.654 406.883,391.902 408.263,388.301C410.484,382.358 414.041,376.506 418.933,370.743C423.825,364.981 430.893,358.318 440.137,350.754C454.483,338.989 464.177,329.67 469.22,322.797C474.262,315.924 476.783,309.427 476.783,303.304C476.783,296.881 474.487,291.464 469.895,287.052C465.303,282.64 459.315,280.434 451.932,280.434C444.129,280.434 437.886,282.775 433.204,287.457C428.522,292.139 426.151,298.622 426.091,306.905L409.434,305.195C410.574,292.769 414.866,283.3 422.309,276.787C429.753,270.275 439.747,267.018 452.292,267.018C464.958,267.018 474.982,270.53 482.365,277.553C489.748,284.576 493.44,293.28 493.44,303.664C493.44,308.946 492.36,314.139 490.199,319.241C488.038,324.343 484.451,329.715 479.439,335.358C474.427,341 466.098,348.744 454.453,358.588C444.729,366.751 438.486,372.289 435.725,375.2C432.964,378.111 430.683,381.037 428.882,383.979L493.62,383.979Z" style="fill-rule:nonzero;"/>
        </g>
        <g transform="matrix(0.871512,0,0,2.54191,-26.037,-610.047)">
            <path d="M513.429,369.032L529.005,367.592C530.326,374.915 532.847,380.227 536.569,383.529C540.29,386.83 545.062,388.481 550.885,388.481C555.867,388.481 560.234,387.34 563.986,385.059C567.737,382.778 570.813,379.732 573.214,375.92C575.616,372.109 577.626,366.961 579.247,360.479C580.868,353.996 581.678,347.393 581.678,340.67C581.678,339.95 581.648,338.869 581.588,337.429C578.347,342.591 573.92,346.778 568.307,349.989C562.695,353.2 556.617,354.806 550.075,354.806C539.15,354.806 529.906,350.844 522.343,342.921C514.779,334.998 510.998,324.553 510.998,311.587C510.998,298.202 514.944,287.427 522.838,279.264C530.731,271.1 540.62,267.018 552.506,267.018C561.089,267.018 568.938,269.329 576.051,273.951C583.164,278.573 588.566,285.161 592.258,293.715C595.949,302.268 597.795,314.649 597.795,330.856C597.795,347.723 595.964,361.154 592.303,371.148C588.641,381.143 583.194,388.751 575.961,393.973C568.728,399.195 560.249,401.806 550.525,401.806C540.2,401.806 531.767,398.94 525.224,393.208C518.681,387.475 514.749,379.417 513.429,369.032ZM579.787,310.777C579.787,301.473 577.311,294.09 572.359,288.628C567.407,283.165 561.449,280.434 554.486,280.434C547.283,280.434 541.011,283.375 535.668,289.258C530.326,295.14 527.655,302.764 527.655,312.128C527.655,320.531 530.191,327.359 535.263,332.612C540.335,337.864 546.593,340.49 554.036,340.49C561.539,340.49 567.707,337.864 572.539,332.612C577.371,327.359 579.787,320.081 579.787,310.777Z" style="fill-rule:nonzero;"/>
        </g>
        <g transform="matrix(0.871512,0,0,2.54191,-26.037,-610.047)">
            <path d="M653.439,385.059L655.78,399.375C651.218,400.336 647.136,400.816 643.535,400.816C637.652,400.816 633.09,399.886 629.849,398.025C626.608,396.164 624.327,393.718 623.006,390.687C621.685,387.655 621.025,381.278 621.025,371.553L621.025,316.54L609.14,316.54L609.14,303.934L621.025,303.934L621.025,280.254L637.142,270.53L637.142,303.934L653.439,303.934L653.439,316.54L637.142,316.54L637.142,372.454C637.142,377.076 637.427,380.047 637.997,381.368C638.568,382.688 639.498,383.739 640.789,384.519C642.079,385.299 643.925,385.689 646.326,385.689C648.127,385.689 650.498,385.479 653.439,385.059Z" style="fill-rule:nonzero;"/>
        </g>
        <g transform="matrix(0.871512,0,0,2.54191,-26.037,-610.047)">
            <path d="M669.286,399.555L669.286,267.558L685.493,267.558L685.493,314.919C693.056,306.155 702.6,301.773 714.125,301.773C721.208,301.773 727.361,303.169 732.583,305.96C737.806,308.751 741.542,312.608 743.793,317.53C746.044,322.452 747.17,329.595 747.17,338.959L747.17,399.555L730.963,399.555L730.963,338.959C730.963,330.856 729.207,324.958 725.695,321.267C722.184,317.575 717.217,315.729 710.794,315.729C705.992,315.729 701.475,316.975 697.243,319.466C693.011,321.957 689.995,325.333 688.194,329.595C686.393,333.857 685.493,339.74 685.493,347.243L685.493,399.555L669.286,399.555Z" style="fill-rule:nonzero;"/>
        </g>
    </g>
    <g id="First-EP" serif:id="First EP" transform="matrix(0.546875,0,0,0.1875,0,236.268)">
        <rect x="0" y="0" width="640" height="480" style="fill:none;"/>
        <g transform="matrix(0.970587,0,0,2.83088,-16.0371,-351.362)">
            <path d="M29.959,273.815L29.959,141.818L119.007,141.818L119.007,157.395L47.426,157.395L47.426,198.272L109.373,198.272L109.373,213.849L47.426,213.849L47.426,273.815L29.959,273.815Z" style="fill-rule:nonzero;"/>
        </g>
        <g transform="matrix(0.970587,0,0,2.83088,-16.0371,-351.362)">
            <path d="M139.716,160.456L139.716,141.818L155.923,141.818L155.923,160.456L139.716,160.456ZM139.716,273.815L139.716,178.194L155.923,178.194L155.923,273.815L139.716,273.815Z" style="fill-rule:nonzero;"/>
        </g>
        <g transform="matrix(0.970587,0,0,2.83088,-16.0371,-351.362)">
            <path d="M180.414,273.815L180.414,178.194L195,178.194L195,192.69C198.722,185.907 202.158,181.435 205.309,179.274C208.461,177.113 211.927,176.033 215.709,176.033C221.171,176.033 226.724,177.773 232.366,181.255L226.784,196.291C222.822,193.95 218.86,192.78 214.899,192.78C211.357,192.78 208.176,193.845 205.355,195.976C202.533,198.107 200.522,201.063 199.322,204.845C197.521,210.608 196.621,216.91 196.621,223.753L196.621,273.815L180.414,273.815Z" style="fill-rule:nonzero;"/>
        </g>
        <g transform="matrix(0.970587,0,0,2.83088,-16.0371,-351.362)">
            <path d="M235.518,245.272L251.544,242.751C252.445,249.174 254.951,254.096 259.063,257.518C263.174,260.939 268.922,262.65 276.305,262.65C283.748,262.65 289.271,261.134 292.872,258.103C296.474,255.072 298.275,251.515 298.275,247.433C298.275,243.772 296.684,240.891 293.503,238.79C291.282,237.349 285.759,235.518 276.935,233.297C265.05,230.296 256.812,227.7 252.22,225.509C247.628,223.318 244.146,220.287 241.775,216.415C239.404,212.543 238.219,208.267 238.219,203.584C238.219,199.323 239.194,195.376 241.145,191.744C243.096,188.113 245.752,185.097 249.113,182.695C251.634,180.835 255.071,179.259 259.423,177.968C263.775,176.678 268.442,176.033 273.424,176.033C280.927,176.033 287.515,177.113 293.187,179.274C298.86,181.435 303.047,184.361 305.748,188.053C308.449,191.744 310.31,196.682 311.33,202.864L295.483,205.025C294.763,200.103 292.677,196.261 289.226,193.5C285.774,190.739 280.897,189.358 274.594,189.358C267.151,189.358 261.839,190.589 258.658,193.05C255.476,195.511 253.885,198.392 253.885,201.694C253.885,203.795 254.546,205.685 255.866,207.366C257.187,209.107 259.258,210.547 262.079,211.688C263.7,212.288 268.472,213.669 276.395,215.83C287.86,218.891 295.859,221.397 300.391,223.348C304.922,225.299 308.479,228.135 311.06,231.857C313.641,235.578 314.932,240.2 314.932,245.723C314.932,251.125 313.356,256.212 310.205,260.984C307.053,265.756 302.506,269.448 296.564,272.059C290.621,274.67 283.898,275.976 276.395,275.976C263.97,275.976 254.501,273.395 247.988,268.232C241.475,263.07 237.318,255.417 235.518,245.272Z" style="fill-rule:nonzero;"/>
        </g>
        <g transform="matrix(0.970587,0,0,2.83088,-16.0371,-351.362)">
            <path d="M369.585,259.319L371.926,273.635C367.364,274.595 363.283,275.075 359.681,275.075C353.799,275.075 349.237,274.145 345.995,272.284C342.754,270.423 340.473,267.977 339.152,264.946C337.832,261.915 337.171,255.537 337.171,245.813L337.171,190.799L325.286,190.799L325.286,178.194L337.171,178.194L337.171,154.513L353.288,144.789L353.288,178.194L369.585,178.194L369.585,190.799L353.288,190.799L353.288,246.713C353.288,251.335 353.573,254.306 354.144,255.627C354.714,256.948 355.644,257.998 356.935,258.778C358.225,259.559 360.071,259.949 362.472,259.949C364.273,259.949 366.644,259.739 369.585,259.319Z" style="fill-rule:nonzero;"/>
        </g>
        <g transform="matrix(0.970587,0,0,2.83088,-16.0371,-351.362)">
            <path d="M439.095,273.815L439.095,141.818L534.537,141.818L534.537,157.395L456.563,157.395L456.563,197.822L529.584,197.822L529.584,213.309L456.563,213.309L456.563,258.238L537.598,258.238L537.598,273.815L439.095,273.815Z" style="fill-rule:nonzero;"/>
        </g>
        <g transform="matrix(0.970587,0,0,2.83088,-16.0371,-351.362)">
            <path d="M561.728,273.815L561.728,141.818L611.52,141.818C620.284,141.818 626.976,142.238 631.598,143.078C638.081,144.159 643.514,146.215 647.896,149.246C652.277,152.277 655.804,156.524 658.475,161.987C661.146,167.449 662.482,173.451 662.482,179.994C662.482,191.219 658.91,200.718 651.767,208.492C644.624,216.265 631.719,220.152 613.05,220.152L579.196,220.152L579.196,273.815L561.728,273.815ZM579.196,204.575L613.321,204.575C624.605,204.575 632.619,202.474 637.361,198.272C642.103,194.07 644.474,188.158 644.474,180.535C644.474,175.012 643.078,170.285 640.287,166.353C637.496,162.422 633.819,159.826 629.257,158.565C626.316,157.785 620.884,157.395 612.96,157.395L579.196,157.395L579.196,204.575Z" style="fill-rule:nonzero;"/>
        </g>
    </g>
    <g id="Noise" transform="matrix(0.546875,0,0,0.1875,2.03735,117.235)">
        <rect x="0" y="0" width="640" height="480" style="fill:none;"/>
        <g transform="matrix(0.982398,0,0,2.86533,13.6992,-429.938)">
            <path d="M488.22,299.852L488.22,167.855L583.661,167.855L583.661,183.432L505.688,183.432L505.688,223.859L578.709,223.859L578.709,239.346L505.688,239.346L505.688,284.275L586.723,284.275L586.723,299.852L488.22,299.852Z" style="fill-rule:nonzero;"/>
        </g>
        <g transform="matrix(0.982398,0,0,2.86533,13.6992,-429.938)">
            <path d="M358.924,257.444L375.401,256.003C376.182,262.606 377.998,268.023 380.849,272.255C383.7,276.487 388.127,279.908 394.129,282.52C400.132,285.131 406.885,286.436 414.388,286.436C421.051,286.436 426.934,285.446 432.036,283.465C437.138,281.484 440.935,278.768 443.426,275.316C445.917,271.865 447.162,268.098 447.162,264.017C447.162,259.875 445.962,256.258 443.561,253.167C441.16,250.076 437.198,247.479 431.676,245.379C428.134,243.998 420.301,241.852 408.176,238.941C396.05,236.029 387.557,233.283 382.695,230.702C376.392,227.401 371.695,223.304 368.603,218.412C365.512,213.52 363.966,208.042 363.966,201.98C363.966,195.317 365.857,189.089 369.639,183.297C373.421,177.504 378.943,173.107 386.206,170.106C393.469,167.105 401.543,165.604 410.426,165.604C420.211,165.604 428.839,167.18 436.313,170.331C443.786,173.482 449.533,178.119 453.555,184.242C457.577,190.365 459.738,197.298 460.038,205.041L443.291,206.302C442.39,197.958 439.344,191.655 434.152,187.393C428.959,183.132 421.291,181.001 411.147,181.001C400.582,181.001 392.884,182.937 388.052,186.808C383.22,190.68 380.804,195.347 380.804,200.809C380.804,205.551 382.514,209.453 385.936,212.514C389.297,215.576 398.076,218.712 412.272,221.923C426.468,225.135 436.208,227.941 441.49,230.342C449.173,233.884 454.846,238.37 458.507,243.803C462.169,249.235 464,255.493 464,262.576C464,269.599 461.989,276.217 457.967,282.43C453.945,288.642 448.168,293.474 440.635,296.926C433.101,300.377 424.623,302.103 415.199,302.103C403.253,302.103 393.244,300.362 385.171,296.881C377.097,293.399 370.764,288.162 366.172,281.169C361.58,274.176 359.164,266.268 358.924,257.444Z" style="fill-rule:nonzero;"/>
        </g>
        <g transform="matrix(0.982398,0,0,2.86533,13.6992,-429.938)">
            <rect x="316.606" y="167.855" width="17.468" height="131.997" style="fill-rule:nonzero;"/>
        </g>
        <g transform="matrix(0.982398,0,0,2.86533,13.6992,-429.938)">
            <path d="M164.891,235.564C164.891,213.655 170.773,196.502 182.538,184.107C194.303,171.712 209.49,165.514 228.098,165.514C240.283,165.514 251.268,168.425 261.052,174.248C270.836,180.07 278.294,188.189 283.427,198.603C287.013,205.882 289.347,213.842 290.427,222.484C290.892,226.207 291.125,230.057 291.125,234.034C291.125,247.419 288.424,259.395 283.022,269.959C277.619,280.524 269.966,288.522 260.062,293.954C250.157,299.387 239.473,302.103 228.008,302.103C215.582,302.103 204.478,299.102 194.693,293.099C184.909,287.097 177.496,278.903 172.454,268.519C167.412,258.134 164.891,247.149 164.891,235.564ZM182.898,235.834C182.898,251.741 187.175,264.272 195.729,273.426C204.283,282.58 215.012,287.157 227.918,287.157C241.063,287.157 251.883,282.535 260.377,273.291C268.87,264.047 273.117,250.931 273.117,233.944C273.117,223.199 271.301,213.82 267.67,205.806C264.038,197.793 258.726,191.58 251.733,187.168C244.74,182.756 236.892,180.551 228.188,180.551C215.822,180.551 205.183,184.797 196.269,193.291C187.355,201.785 182.898,215.966 182.898,235.834Z" style="fill-rule:nonzero;"/>
        </g>
        <g transform="matrix(0.982398,0,0,2.86533,13.6992,-429.938)">
            <path d="M36.855,299.852L36.855,167.855L54.773,167.855L124.103,271.49L124.103,167.855L140.85,167.855L140.85,299.852L122.932,299.852L53.602,196.127L53.602,299.852L36.855,299.852Z" style="fill-rule:nonzero;"/>
        </g>
    </g>
    <g id="Niklas" transform="matrix(0.546875,0,0,0.1875,2.03735,0)">
        <rect x="0" y="0" width="640" height="480" style="fill:none;"/>
        <g transform="matrix(0.911982,0,0,2.65995,-2.26312,337.463)">
            <path d="M42.428,29.358L42.428,-102.639L60.346,-102.639L129.676,0.995L129.676,-102.639L146.423,-102.639L146.423,29.358L128.505,29.358L59.175,-74.367L59.175,29.358L42.428,29.358Z" style="fill-rule:nonzero;"/>
        </g>
        <g transform="matrix(0.911982,0,0,2.65995,-2.26312,337.463)">
            <rect x="178.747" y="-102.639" width="17.468" height="131.997" style="fill-rule:nonzero;"/>
        </g>
        <g transform="matrix(0.911982,0,0,2.65995,-2.26312,337.463)">
            <path d="M226.288,29.358L226.288,-102.639L243.755,-102.639L243.755,-37.181L309.303,-102.639L332.984,-102.639L277.61,-49.156L335.415,29.358L312.365,29.358L265.364,-37.451L243.755,-16.382L243.755,29.358L226.288,29.358Z" style="fill-rule:nonzero;"/>
        </g>
        <g transform="matrix(0.911982,0,0,2.65995,-2.26312,337.463)">
            <path d="M349.281,29.358L349.281,-102.639L366.748,-102.639L366.748,13.781L431.756,13.781L431.756,29.358L349.281,29.358Z" style="fill-rule:nonzero;"/>
        </g>
        <g transform="matrix(0.911982,0,0,2.65995,-2.26312,337.463)">
            <path d="M438.059,29.358L488.751,-102.639L507.569,-102.639L561.592,29.358L541.694,29.358L526.297,-10.62L471.103,-10.62L456.607,29.358L438.059,29.358ZM476.145,-24.846L520.895,-24.846L507.119,-61.402C502.917,-72.506 499.796,-81.63 497.755,-88.773C496.074,-80.31 493.703,-71.906 490.642,-63.562L476.145,-24.846Z" style="fill-rule:nonzero;"/>
        </g>
        <g transform="matrix(0.911982,0,0,2.65995,-2.26312,337.463)">
            <path d="M569.606,-13.051L586.083,-14.491C586.863,-7.888 588.679,-2.471 591.53,1.761C594.381,5.993 598.808,9.414 604.811,12.025C610.814,14.636 617.566,15.942 625.07,15.942C631.733,15.942 637.615,14.951 642.717,12.971C647.82,10.99 651.616,8.274 654.107,4.822C656.598,1.371 657.844,-2.396 657.844,-6.478C657.844,-10.62 656.643,-14.236 654.242,-17.327C651.841,-20.419 647.88,-23.015 642.357,-25.116C638.816,-26.496 630.982,-28.642 618.857,-31.554C606.732,-34.465 598.238,-37.211 593.376,-39.792C587.073,-43.094 582.376,-47.19 579.285,-52.083C576.194,-56.975 574.648,-62.452 574.648,-68.515C574.648,-75.177 576.539,-81.405 580.32,-87.198C584.102,-92.99 589.624,-97.387 596.888,-100.388C604.151,-103.39 612.224,-104.89 621.108,-104.89C630.892,-104.89 639.521,-103.315 646.994,-100.163C654.467,-97.012 660.215,-92.375 664.237,-86.252C668.258,-80.13 670.419,-73.197 670.719,-65.453L653.972,-64.193C653.072,-72.536 650.025,-78.839 644.833,-83.101C639.641,-87.363 631.973,-89.494 621.828,-89.494C611.264,-89.494 603.565,-87.558 598.733,-83.686C593.901,-79.814 591.485,-75.147 591.485,-69.685C591.485,-64.943 593.196,-61.041 596.617,-57.98C599.979,-54.919 608.758,-51.782 622.954,-48.571C637.15,-45.36 646.889,-42.553 652.171,-40.152C659.855,-36.611 665.527,-32.124 669.189,-26.692C672.85,-21.259 674.681,-15.001 674.681,-7.918C674.681,-0.895 672.67,5.722 668.649,11.935C664.627,18.148 658.849,22.98 651.316,26.431C643.783,29.883 635.304,31.609 625.88,31.609C613.935,31.609 603.926,29.868 595.852,26.386C587.779,22.905 581.446,17.668 576.854,10.675C572.262,3.682 569.846,-4.227 569.606,-13.051Z" style="fill-rule:nonzero;"/>
        </g>
    </g>
</svg>
