<?xml version="1.0" encoding="UTF-8" standalone="no"?>
<!DOCTYPE svg PUBLIC "-//W3C//DTD SVG 1.1//EN" "http://www.w3.org/Graphics/SVG/1.1/DTD/svg11.dtd">
<svg id="js-promo-date" width="100%" height="100%" viewBox="0 0 350 90" version="1.1" xmlns="http://www.w3.org/2000/svg" xmlns:xlink="http://www.w3.org/1999/xlink" xml:space="preserve" xmlns:serif="http://www.serif.com/" style="fill-rule:evenodd;clip-rule:evenodd;stroke-linejoin:round;stroke-miterlimit:2;">
    <g transform="matrix(1,0,0,1,-1.19283,-491.771)">
        <g id="Date" transform="matrix(0.546875,0,0,0.1875,1.19283,491.771)">
            <g transform="matrix(0.871512,0,0,2.54191,-26.037,-610.047)">
                <path d="M46.937,399.555L46.937,267.558L135.986,267.558L135.986,283.135L64.405,283.135L64.405,324.013L126.352,324.013L126.352,339.59L64.405,339.59L64.405,399.555L46.937,399.555Z" style="fill-rule:nonzero;"/>
            </g>
            <g transform="matrix(0.871512,0,0,2.54191,-26.037,-610.047)">
                <path d="M222.063,368.762L238.81,370.833C236.169,380.617 231.277,388.211 224.134,393.613C216.991,399.015 207.867,401.716 196.762,401.716C182.776,401.716 171.686,397.41 163.493,388.796C155.299,380.182 151.202,368.102 151.202,352.555C151.202,336.468 155.344,323.983 163.628,315.099C171.911,306.215 182.656,301.773 195.862,301.773C208.647,301.773 219.092,306.125 227.195,314.829C235.299,323.533 239.35,335.778 239.35,351.565C239.35,352.525 239.32,353.966 239.26,355.887L167.95,355.887C168.55,366.391 171.521,374.435 176.863,380.017C182.206,385.599 188.869,388.391 196.852,388.391C202.795,388.391 207.867,386.83 212.069,383.709C216.27,380.587 219.602,375.605 222.063,368.762ZM168.85,342.561L222.243,342.561C221.523,334.517 219.482,328.485 216.12,324.463C210.958,318.22 204.265,315.099 196.042,315.099C188.598,315.099 182.341,317.59 177.269,322.572C172.196,327.554 169.39,334.217 168.85,342.561Z" style="fill-rule:nonzero;"/>
            </g>
            <g transform="matrix(0.871512,0,0,2.54191,-26.037,-610.047)">
                <path d="M274.105,399.555L259.069,399.555L259.069,267.558L275.276,267.558L275.276,314.649C282.119,306.065 290.853,301.773 301.477,301.773C307.36,301.773 312.927,302.959 318.179,305.33C323.432,307.701 327.754,311.032 331.145,315.324C334.536,319.616 337.193,324.793 339.113,330.856C341.034,336.918 341.995,343.401 341.995,350.304C341.995,366.691 337.943,379.357 329.839,388.301C321.736,397.244 312.012,401.716 300.667,401.716C289.382,401.716 280.528,397.004 274.105,387.58L274.105,399.555ZM273.925,351.025C273.925,362.489 275.486,370.773 278.607,375.875C283.71,384.219 290.613,388.391 299.316,388.391C306.399,388.391 312.522,385.314 317.684,379.162C322.846,373.009 325.428,363.84 325.428,351.655C325.428,339.169 322.951,329.955 317.999,324.013C313.047,318.07 307.06,315.099 300.037,315.099C292.954,315.099 286.831,318.175 281.669,324.328C276.506,330.481 273.925,339.379 273.925,351.025Z" style="fill-rule:nonzero;"/>
            </g>
            <g transform="matrix(0.871512,0,0,2.54191,-26.037,-610.047)">
                <path d="M493.62,383.979L493.62,399.555L406.372,399.555C406.252,395.654 406.883,391.902 408.263,388.301C410.484,382.358 414.041,376.506 418.933,370.743C423.825,364.981 430.893,358.318 440.137,350.754C454.483,338.989 464.177,329.67 469.22,322.797C474.262,315.924 476.783,309.427 476.783,303.304C476.783,296.881 474.487,291.464 469.895,287.052C465.303,282.64 459.315,280.434 451.932,280.434C444.129,280.434 437.886,282.775 433.204,287.457C428.522,292.139 426.151,298.622 426.091,306.905L409.434,305.195C410.574,292.769 414.866,283.3 422.309,276.787C429.753,270.275 439.747,267.018 452.292,267.018C464.958,267.018 474.982,270.53 482.365,277.553C489.748,284.576 493.44,293.28 493.44,303.664C493.44,308.946 492.36,314.139 490.199,319.241C488.038,324.343 484.451,329.715 479.439,335.358C474.427,341 466.098,348.744 454.453,358.588C444.729,366.751 438.486,372.289 435.725,375.2C432.964,378.111 430.683,381.037 428.882,383.979L493.62,383.979Z" style="fill-rule:nonzero;"/>
            </g>
            <g transform="matrix(0.871512,0,0,2.54191,-26.037,-610.047)">
                <path d="M513.429,369.032L529.005,367.592C530.326,374.915 532.847,380.227 536.569,383.529C540.29,386.83 545.062,388.481 550.885,388.481C555.867,388.481 560.234,387.34 563.986,385.059C567.737,382.778 570.813,379.732 573.214,375.92C575.616,372.109 577.626,366.961 579.247,360.479C580.868,353.996 581.678,347.393 581.678,340.67C581.678,339.95 581.648,338.869 581.588,337.429C578.347,342.591 573.92,346.778 568.307,349.989C562.695,353.2 556.617,354.806 550.075,354.806C539.15,354.806 529.906,350.844 522.343,342.921C514.779,334.998 510.998,324.553 510.998,311.587C510.998,298.202 514.944,287.427 522.838,279.264C530.731,271.1 540.62,267.018 552.506,267.018C561.089,267.018 568.938,269.329 576.051,273.951C583.164,278.573 588.566,285.161 592.258,293.715C595.949,302.268 597.795,314.649 597.795,330.856C597.795,347.723 595.964,361.154 592.303,371.148C588.641,381.143 583.194,388.751 575.961,393.973C568.728,399.195 560.249,401.806 550.525,401.806C540.2,401.806 531.767,398.94 525.224,393.208C518.681,387.475 514.749,379.417 513.429,369.032ZM579.787,310.777C579.787,301.473 577.311,294.09 572.359,288.628C567.407,283.165 561.449,280.434 554.486,280.434C547.283,280.434 541.011,283.375 535.668,289.258C530.326,295.14 527.655,302.764 527.655,312.128C527.655,320.531 530.191,327.359 535.263,332.612C540.335,337.864 546.593,340.49 554.036,340.49C561.539,340.49 567.707,337.864 572.539,332.612C577.371,327.359 579.787,320.081 579.787,310.777Z" style="fill-rule:nonzero;"/>
            </g>
            <g transform="matrix(0.871512,0,0,2.54191,-26.037,-610.047)">
                <path d="M653.439,385.059L655.78,399.375C651.218,400.336 647.136,400.816 643.535,400.816C637.652,400.816 633.09,399.886 629.849,398.025C626.608,396.164 624.327,393.718 623.006,390.687C621.685,387.655 621.025,381.278 621.025,371.553L621.025,316.54L609.14,316.54L609.14,303.934L621.025,303.934L621.025,280.254L637.142,270.53L637.142,303.934L653.439,303.934L653.439,316.54L637.142,316.54L637.142,372.454C637.142,377.076 637.427,380.047 637.997,381.368C638.568,382.688 639.498,383.739 640.789,384.519C642.079,385.299 643.925,385.689 646.326,385.689C648.127,385.689 650.498,385.479 653.439,385.059Z" style="fill-rule:nonzero;"/>
            </g>
            <g transform="matrix(0.871512,0,0,2.54191,-26.037,-610.047)">
                <path d="M669.286,399.555L669.286,267.558L685.493,267.558L685.493,314.919C693.056,306.155 702.6,301.773 714.125,301.773C721.208,301.773 727.361,303.169 732.583,305.96C737.806,308.751 741.542,312.608 743.793,317.53C746.044,322.452 747.17,329.595 747.17,338.959L747.17,399.555L730.963,399.555L730.963,338.959C730.963,330.856 729.207,324.958 725.695,321.267C722.184,317.575 717.217,315.729 710.794,315.729C705.992,315.729 701.475,316.975 697.243,319.466C693.011,321.957 689.995,325.333 688.194,329.595C686.393,333.857 685.493,339.74 685.493,347.243L685.493,399.555L669.286,399.555Z" style="fill-rule:nonzero;"/>
            </g>
        </g>
    </g>
</svg>
