<?xml version="1.0" encoding="UTF-8" standalone="no"?>
<!DOCTYPE svg PUBLIC "-//W3C//DTD SVG 1.1//EN" "http://www.w3.org/Graphics/SVG/1.1/DTD/svg11.dtd">
<svg width="100%" height="100%" viewBox="0 0 350 90" version="1.1" xmlns="http://www.w3.org/2000/svg" xmlns:xlink="http://www.w3.org/1999/xlink" xml:space="preserve" xmlns:serif="http://www.serif.com/" style="fill-rule:evenodd;clip-rule:evenodd;stroke-linejoin:round;stroke-miterlimit:2;">
    <g transform="matrix(1,0,0,1,-0.723872,-236.268)">
        <g id="First-EP" serif:id="First EP" transform="matrix(0.546875,0,0,0.1875,0.723872,236.268)">
            <g clip-path="url(#_clip1)">
                <g transform="matrix(0.833257,0,0,2.43033,-35.3182,-273.84)">
                    <path d="M44.444,276.346L44.444,144.349L89.914,144.349C100.178,144.349 108.011,144.979 113.414,146.239C120.977,147.98 127.43,151.132 132.772,155.694C139.735,161.576 144.942,169.094 148.394,178.248C151.845,187.402 153.571,197.862 153.571,209.627C153.571,219.651 152.401,228.535 150.059,236.278C147.718,244.022 144.717,250.429 141.056,255.502C137.394,260.574 133.387,264.566 129.035,267.477C124.684,270.388 119.431,272.594 113.279,274.095C107.126,275.595 100.058,276.346 92.074,276.346L44.444,276.346ZM61.911,260.769L90.094,260.769C98.797,260.769 105.625,259.959 110.577,258.338C115.53,256.717 119.476,254.436 122.418,251.495C126.559,247.353 129.786,241.786 132.097,234.793C134.408,227.8 135.563,219.321 135.563,209.357C135.563,195.551 133.297,184.941 128.765,177.528C124.233,170.115 118.726,165.148 112.243,162.627C107.561,160.826 100.028,159.925 89.643,159.925L61.911,159.925L61.911,260.769Z" style="fill-rule:nonzero;"/>
                </g>
                <g transform="matrix(0.833257,0,0,2.43033,-35.3182,-273.84)">
                    <path d="M240.999,245.552L257.746,247.623C255.105,257.407 250.213,265.001 243.07,270.403C235.927,275.805 226.803,278.507 215.698,278.507C201.712,278.507 190.622,274.2 182.428,265.586C174.235,256.972 170.138,244.892 170.138,229.345C170.138,213.258 174.28,200.773 182.564,191.889C190.847,183.005 201.592,178.563 214.797,178.563C227.583,178.563 238.027,182.915 246.131,191.619C254.234,200.323 258.286,212.568 258.286,228.355C258.286,229.315 258.256,230.756 258.196,232.677L186.885,232.677C187.486,243.181 190.457,251.225 195.799,256.807C201.142,262.39 207.804,265.181 215.788,265.181C221.73,265.181 226.803,263.62 231.004,260.499C235.206,257.377 238.538,252.395 240.999,245.552ZM187.786,219.351L241.179,219.351C240.459,211.308 238.418,205.275 235.056,201.253C229.894,195.01 223.201,191.889 214.978,191.889C207.534,191.889 201.277,194.38 196.204,199.362C191.132,204.345 188.326,211.007 187.786,219.351Z" style="fill-rule:nonzero;"/>
                </g>
                <g transform="matrix(0.833257,0,0,2.43033,-35.3182,-273.84)">
                    <path d="M293.041,276.346L278.005,276.346L278.005,144.349L294.212,144.349L294.212,191.439C301.055,182.855 309.788,178.563 320.413,178.563C326.296,178.563 331.863,179.749 337.115,182.12C342.368,184.491 346.689,187.822 350.081,192.114C353.472,196.406 356.128,201.583 358.049,207.646C359.97,213.709 360.931,220.191 360.931,227.094C360.931,243.481 356.879,256.147 348.775,265.091C340.672,274.035 330.948,278.507 319.603,278.507C308.318,278.507 299.464,273.795 293.041,264.37L293.041,276.346ZM292.861,227.815C292.861,239.28 294.422,247.563 297.543,252.665C302.645,261.009 309.548,265.181 318.252,265.181C325.335,265.181 331.458,262.104 336.62,255.952C341.782,249.799 344.363,240.63 344.363,228.445C344.363,215.96 341.887,206.746 336.935,200.803C331.983,194.86 325.995,191.889 318.972,191.889C311.889,191.889 305.767,194.965 300.604,201.118C295.442,207.271 292.861,216.17 292.861,227.815Z" style="fill-rule:nonzero;"/>
                </g>
                <g transform="matrix(0.833257,0,0,2.43033,-35.3182,-273.84)">
                    <path d="M443.316,276.346L443.316,262.3C435.873,273.104 425.758,278.507 412.973,278.507C407.331,278.507 402.063,277.426 397.171,275.265C392.279,273.104 388.647,270.388 386.276,267.117C383.905,263.845 382.24,259.838 381.279,255.096C380.619,251.915 380.289,246.873 380.289,239.97L380.289,180.724L396.496,180.724L396.496,233.757C396.496,242.221 396.826,247.923 397.486,250.865C398.507,255.126 400.668,258.473 403.969,260.904C407.271,263.335 411.352,264.551 416.214,264.551C421.076,264.551 425.638,263.305 429.9,260.814C434.162,258.323 437.178,254.931 438.949,250.64C440.72,246.348 441.605,240.12 441.605,231.956L441.605,180.724L457.812,180.724L457.812,276.346L443.316,276.346Z" style="fill-rule:nonzero;"/>
                </g>
                <g transform="matrix(0.833257,0,0,2.43033,-35.3182,-273.84)">
                    <path d="M518.589,261.849L520.93,276.166C516.368,277.126 512.286,277.606 508.684,277.606C502.802,277.606 498.24,276.676 494.998,274.815C491.757,272.954 489.476,270.508 488.155,267.477C486.835,264.445 486.175,258.068 486.175,248.344L486.175,193.33L474.289,193.33L474.289,180.724L486.175,180.724L486.175,157.044L502.292,147.32L502.292,180.724L518.589,180.724L518.589,193.33L502.292,193.33L502.292,249.244C502.292,253.866 502.577,256.837 503.147,258.158C503.717,259.478 504.648,260.529 505.938,261.309C507.229,262.089 509.074,262.48 511.475,262.48C513.276,262.48 515.647,262.27 518.589,261.849Z" style="fill-rule:nonzero;"/>
                </g>
                <g transform="matrix(0.833257,0,0,2.43033,-35.3182,-273.84)">
                    <path d="M588.099,276.346L588.099,144.349L683.54,144.349L683.54,159.925L605.566,159.925L605.566,200.353L678.588,200.353L678.588,215.839L605.566,215.839L605.566,260.769L686.601,260.769L686.601,276.346L588.099,276.346Z" style="fill-rule:nonzero;"/>
                </g>
                <g transform="matrix(0.833257,0,0,2.43033,-35.3182,-273.84)">
                    <path d="M710.732,276.346L710.732,144.349L760.523,144.349C769.287,144.349 775.98,144.769 780.602,145.609C787.084,146.69 792.517,148.746 796.899,151.777C801.281,154.808 804.807,159.055 807.478,164.517C810.149,169.98 811.485,175.982 811.485,182.525C811.485,193.75 807.913,203.249 800.77,211.022C793.627,218.796 780.722,222.682 762.054,222.682L728.199,222.682L728.199,276.346L710.732,276.346ZM728.199,207.106L762.324,207.106C773.609,207.106 781.622,205.005 786.364,200.803C791.106,196.601 793.477,190.689 793.477,183.065C793.477,177.543 792.082,172.816 789.29,168.884C786.499,164.953 782.823,162.356 778.261,161.096C775.319,160.316 769.887,159.925 761.964,159.925L728.199,159.925L728.199,207.106Z" style="fill-rule:nonzero;"/>
                </g>
            </g>
        </g>
    </g>
</svg>
