<?xml version="1.0" encoding="UTF-8" standalone="no"?>
<!DOCTYPE svg PUBLIC "-//W3C//DTD SVG 1.1//EN" "http://www.w3.org/Graphics/SVG/1.1/DTD/svg11.dtd">
<svg id="js-promo-niklas" width="100%" height="100%" viewBox="0 0 350 90" version="1.1" xmlns="http://www.w3.org/2000/svg" xmlns:xlink="http://www.w3.org/1999/xlink" xml:space="preserve" xmlns:serif="http://www.serif.com/" style="fill-rule:evenodd;clip-rule:evenodd;stroke-linejoin:round;stroke-miterlimit:2;">
    <g transform="matrix(1,0,0,1,-2.76122,0)">
        <g id="Niklas" transform="matrix(0.546875,0,0,0.1875,2.76122,0)">
            <g transform="matrix(0.911982,0,0,2.65995,-2.26312,337.463)">
                <path d="M42.428,29.358L42.428,-102.639L60.346,-102.639L129.676,0.995L129.676,-102.639L146.423,-102.639L146.423,29.358L128.505,29.358L59.175,-74.367L59.175,29.358L42.428,29.358Z" style="fill-rule:nonzero;"/>
            </g>
            <g transform="matrix(0.911982,0,0,2.65995,-2.26312,337.463)">
                <rect x="178.747" y="-102.639" width="17.468" height="131.997" style="fill-rule:nonzero;"/>
            </g>
            <g transform="matrix(0.911982,0,0,2.65995,-2.26312,337.463)">
                <path d="M226.288,29.358L226.288,-102.639L243.755,-102.639L243.755,-37.181L309.303,-102.639L332.984,-102.639L277.61,-49.156L335.415,29.358L312.365,29.358L265.364,-37.451L243.755,-16.382L243.755,29.358L226.288,29.358Z" style="fill-rule:nonzero;"/>
            </g>
            <g transform="matrix(0.911982,0,0,2.65995,-2.26312,337.463)">
                <path d="M349.281,29.358L349.281,-102.639L366.748,-102.639L366.748,13.781L431.756,13.781L431.756,29.358L349.281,29.358Z" style="fill-rule:nonzero;"/>
            </g>
            <g transform="matrix(0.911982,0,0,2.65995,-2.26312,337.463)">
                <path d="M438.059,29.358L488.751,-102.639L507.569,-102.639L561.592,29.358L541.694,29.358L526.297,-10.62L471.103,-10.62L456.607,29.358L438.059,29.358ZM476.145,-24.846L520.895,-24.846L507.119,-61.402C502.917,-72.506 499.796,-81.63 497.755,-88.773C496.074,-80.31 493.703,-71.906 490.642,-63.562L476.145,-24.846Z" style="fill-rule:nonzero;"/>
            </g>
            <g transform="matrix(0.911982,0,0,2.65995,-2.26312,337.463)">
                <path d="M569.606,-13.051L586.083,-14.491C586.863,-7.888 588.679,-2.471 591.53,1.761C594.381,5.993 598.808,9.414 604.811,12.025C610.814,14.636 617.566,15.942 625.07,15.942C631.733,15.942 637.615,14.951 642.717,12.971C647.82,10.99 651.616,8.274 654.107,4.822C656.598,1.371 657.844,-2.396 657.844,-6.478C657.844,-10.62 656.643,-14.236 654.242,-17.327C651.841,-20.419 647.88,-23.015 642.357,-25.116C638.816,-26.496 630.982,-28.642 618.857,-31.554C606.732,-34.465 598.238,-37.211 593.376,-39.792C587.073,-43.094 582.376,-47.19 579.285,-52.083C576.194,-56.975 574.648,-62.452 574.648,-68.515C574.648,-75.177 576.539,-81.405 580.32,-87.198C584.102,-92.99 589.624,-97.387 596.888,-100.388C604.151,-103.39 612.224,-104.89 621.108,-104.89C630.892,-104.89 639.521,-103.315 646.994,-100.163C654.467,-97.012 660.215,-92.375 664.237,-86.252C668.258,-80.13 670.419,-73.197 670.719,-65.453L653.972,-64.193C653.072,-72.536 650.025,-78.839 644.833,-83.101C639.641,-87.363 631.973,-89.494 621.828,-89.494C611.264,-89.494 603.565,-87.558 598.733,-83.686C593.901,-79.814 591.485,-75.147 591.485,-69.685C591.485,-64.943 593.196,-61.041 596.617,-57.98C599.979,-54.919 608.758,-51.782 622.954,-48.571C637.15,-45.36 646.889,-42.553 652.171,-40.152C659.855,-36.611 665.527,-32.124 669.189,-26.692C672.85,-21.259 674.681,-15.001 674.681,-7.918C674.681,-0.895 672.67,5.722 668.649,11.935C664.627,18.148 658.849,22.98 651.316,26.431C643.783,29.883 635.304,31.609 625.88,31.609C613.935,31.609 603.926,29.868 595.852,26.386C587.779,22.905 581.446,17.668 576.854,10.675C572.262,3.682 569.846,-4.227 569.606,-13.051Z" style="fill-rule:nonzero;"/>
            </g>
        </g>
    </g>
</svg>
