<?xml version="1.0" encoding="UTF-8" standalone="no"?>
<!DOCTYPE svg PUBLIC "-//W3C//DTD SVG 1.1//EN" "http://www.w3.org/Graphics/SVG/1.1/DTD/svg11.dtd">
<svg id="js-promo-noise" width="100%" height="100%" viewBox="0 0 350 90" version="1.1" xmlns="http://www.w3.org/2000/svg" xmlns:xlink="http://www.w3.org/1999/xlink" xml:space="preserve" xmlns:serif="http://www.serif.com/" style="fill-rule:evenodd;clip-rule:evenodd;stroke-linejoin:round;stroke-miterlimit:2;">
    <g transform="matrix(1,0,0,1,-2.76122,-117.235)">
        <g id="Noise" transform="matrix(0.546875,0,0,0.1875,2.76122,117.235)">
            <g transform="matrix(0.982398,0,0,2.86533,13.6992,-429.938)">
                <path d="M488.22,299.852L488.22,167.855L583.661,167.855L583.661,183.432L505.688,183.432L505.688,223.859L578.709,223.859L578.709,239.346L505.688,239.346L505.688,284.275L586.723,284.275L586.723,299.852L488.22,299.852Z" style="fill-rule:nonzero;"/>
            </g>
            <g transform="matrix(0.982398,0,0,2.86533,13.6992,-429.938)">
                <path d="M358.924,257.444L375.401,256.003C376.182,262.606 377.998,268.023 380.849,272.255C383.7,276.487 388.127,279.908 394.129,282.52C400.132,285.131 406.885,286.436 414.388,286.436C421.051,286.436 426.934,285.446 432.036,283.465C437.138,281.484 440.935,278.768 443.426,275.316C445.917,271.865 447.162,268.098 447.162,264.017C447.162,259.875 445.962,256.258 443.561,253.167C441.16,250.076 437.198,247.479 431.676,245.379C428.134,243.998 420.301,241.852 408.176,238.941C396.05,236.029 387.557,233.283 382.695,230.702C376.392,227.401 371.695,223.304 368.603,218.412C365.512,213.52 363.966,208.042 363.966,201.98C363.966,195.317 365.857,189.089 369.639,183.297C373.421,177.504 378.943,173.107 386.206,170.106C393.469,167.105 401.543,165.604 410.426,165.604C420.211,165.604 428.839,167.18 436.313,170.331C443.786,173.482 449.533,178.119 453.555,184.242C457.577,190.365 459.738,197.298 460.038,205.041L443.291,206.302C442.39,197.958 439.344,191.655 434.152,187.393C428.959,183.132 421.291,181.001 411.147,181.001C400.582,181.001 392.884,182.937 388.052,186.808C383.22,190.68 380.804,195.347 380.804,200.809C380.804,205.551 382.514,209.453 385.936,212.514C389.297,215.576 398.076,218.712 412.272,221.923C426.468,225.135 436.208,227.941 441.49,230.342C449.173,233.884 454.846,238.37 458.507,243.803C462.169,249.235 464,255.493 464,262.576C464,269.599 461.989,276.217 457.967,282.43C453.945,288.642 448.168,293.474 440.635,296.926C433.101,300.377 424.623,302.103 415.199,302.103C403.253,302.103 393.244,300.362 385.171,296.881C377.097,293.399 370.764,288.162 366.172,281.169C361.58,274.176 359.164,266.268 358.924,257.444Z" style="fill-rule:nonzero;"/>
            </g>
            <g transform="matrix(0.982398,0,0,2.86533,13.6992,-429.938)">
                <rect x="316.606" y="167.855" width="17.468" height="131.997" style="fill-rule:nonzero;"/>
            </g>
            <g transform="matrix(0.982398,0,0,2.86533,13.6992,-429.938)">
                <path d="M164.891,235.564C164.891,213.655 170.773,196.502 182.538,184.107C194.303,171.712 209.49,165.514 228.098,165.514C240.283,165.514 251.268,168.425 261.052,174.248C270.836,180.07 278.294,188.189 283.427,198.603C287.013,205.882 289.347,213.842 290.427,222.484C290.892,226.207 291.125,230.057 291.125,234.034C291.125,247.419 288.424,259.395 283.022,269.959C277.619,280.524 269.966,288.522 260.062,293.954C250.157,299.387 239.473,302.103 228.008,302.103C215.582,302.103 204.478,299.102 194.693,293.099C184.909,287.097 177.496,278.903 172.454,268.519C167.412,258.134 164.891,247.149 164.891,235.564ZM182.898,235.834C182.898,251.741 187.175,264.272 195.729,273.426C204.283,282.58 215.012,287.157 227.918,287.157C241.063,287.157 251.883,282.535 260.377,273.291C268.87,264.047 273.117,250.931 273.117,233.944C273.117,223.199 271.301,213.82 267.67,205.806C264.038,197.793 258.726,191.58 251.733,187.168C244.74,182.756 236.892,180.551 228.188,180.551C215.822,180.551 205.183,184.797 196.269,193.291C187.355,201.785 182.898,215.966 182.898,235.834Z" style="fill-rule:nonzero;"/>
            </g>
            <g transform="matrix(0.982398,0,0,2.86533,13.6992,-429.938)">
                <path d="M36.855,299.852L36.855,167.855L54.773,167.855L124.103,271.49L124.103,167.855L140.85,167.855L140.85,299.852L122.932,299.852L53.602,196.127L53.602,299.852L36.855,299.852Z" style="fill-rule:nonzero;"/>
            </g>
        </g>
    </g>
</svg>
