<?xml version="1.0" encoding="UTF-8" standalone="no"?>
<!DOCTYPE svg PUBLIC "-//W3C//DTD SVG 1.1//EN" "http://www.w3.org/Graphics/SVG/1.1/DTD/svg11.dtd">
<svg id="js-promo-out-on" width="100%" height="100%" viewBox="0 0 350 90" version="1.1" xmlns="http://www.w3.org/2000/svg" xmlns:xlink="http://www.w3.org/1999/xlink" xml:space="preserve" xmlns:serif="http://www.serif.com/" style="fill-rule:evenodd;clip-rule:evenodd;stroke-linejoin:round;stroke-miterlimit:2;">
    <g transform="matrix(1,0,0,1,0,-356.385)">
        <g id="Out" transform="matrix(0.546875,0,0,0.1875,0,356.385)">
            <g transform="matrix(0.755652,0,0,2.20399,117.593,-473.796)">
                <path d="M20.926,339.488C20.926,321.78 25.848,308.665 35.692,300.141C43.916,293.058 53.94,289.516 65.765,289.516C78.911,289.516 89.655,293.823 97.999,302.437C106.343,311.051 110.514,322.951 110.514,338.137C110.514,350.443 108.669,360.122 104.977,367.175C101.285,374.228 95.913,379.705 88.86,383.607C81.807,387.509 74.109,389.459 65.765,389.459C52.379,389.459 41.56,385.168 33.306,376.584C25.053,368 20.926,355.635 20.926,339.488ZM37.583,339.488C37.583,351.733 40.254,360.902 45.596,366.995C50.939,373.087 57.662,376.134 65.765,376.134C73.809,376.134 80.502,373.072 85.844,366.95C91.186,360.827 93.857,351.493 93.857,338.948C93.857,327.123 91.171,318.164 85.799,312.071C80.426,305.978 73.749,302.932 65.765,302.932C57.662,302.932 50.939,305.963 45.596,312.026C40.254,318.089 37.583,327.243 37.583,339.488Z" style="fill-rule:nonzero;"/>
            </g>
            <g transform="matrix(0.755652,0,0,2.20399,117.593,-473.796)">
                <path d="M192.18,387.298L192.18,373.252C184.737,384.057 174.622,389.459 161.837,389.459C156.194,389.459 150.927,388.379 146.035,386.218C141.143,384.057 137.511,381.341 135.14,378.069C132.769,374.798 131.103,370.791 130.143,366.049C129.483,362.868 129.153,357.826 129.153,350.923L129.153,291.677L145.36,291.677L145.36,344.71C145.36,353.174 145.69,358.876 146.35,361.817C147.37,366.079 149.531,369.426 152.833,371.857C156.134,374.288 160.216,375.503 165.078,375.503C169.94,375.503 174.502,374.258 178.764,371.767C183.026,369.276 186.042,365.884 187.813,361.592C189.584,357.301 190.469,351.073 190.469,342.909L190.469,291.677L206.676,291.677L206.676,387.298L192.18,387.298Z" style="fill-rule:nonzero;"/>
            </g>
            <g transform="matrix(0.755652,0,0,2.20399,117.593,-473.796)">
                <path d="M267.452,372.802L269.793,387.118C265.231,388.079 261.149,388.559 257.548,388.559C251.665,388.559 247.103,387.629 243.862,385.768C240.621,383.907 238.34,381.461 237.019,378.43C235.699,375.398 235.038,369.021 235.038,359.296L235.038,304.283L223.153,304.283L223.153,291.677L235.038,291.677L235.038,267.997L251.155,258.273L251.155,291.677L267.452,291.677L267.452,304.283L251.155,304.283L251.155,360.197C251.155,364.819 251.44,367.79 252.011,369.111C252.581,370.431 253.511,371.482 254.802,372.262C256.092,373.042 257.938,373.432 260.339,373.432C262.14,373.432 264.511,373.222 267.452,372.802Z" style="fill-rule:nonzero;"/>
            </g>
            <g transform="matrix(0.755652,0,0,2.20399,117.593,-473.796)">
                <path d="M328.499,339.488C328.499,321.78 333.421,308.665 343.265,300.141C351.488,293.058 361.513,289.516 373.338,289.516C386.484,289.516 397.228,293.823 405.572,302.437C413.915,311.051 418.087,322.951 418.087,338.137C418.087,350.443 416.241,360.122 412.55,367.175C408.858,374.228 403.486,379.705 396.433,383.607C389.38,387.509 381.682,389.459 373.338,389.459C359.952,389.459 349.132,385.168 340.879,376.584C332.625,368 328.499,355.635 328.499,339.488ZM345.156,339.488C345.156,351.733 347.827,360.902 353.169,366.995C358.512,373.087 365.234,376.134 373.338,376.134C381.381,376.134 388.074,373.072 393.417,366.95C398.759,360.827 401.43,351.493 401.43,338.948C401.43,327.123 398.744,318.164 393.372,312.071C387.999,305.978 381.321,302.932 373.338,302.932C365.234,302.932 358.512,305.963 353.169,312.026C347.827,318.089 345.156,327.243 345.156,339.488Z" style="fill-rule:nonzero;"/>
            </g>
            <g transform="matrix(0.755652,0,0,2.20399,117.593,-473.796)">
                <path d="M437.085,387.298L437.085,291.677L451.672,291.677L451.672,305.273C458.695,294.769 468.839,289.516 482.105,289.516C487.867,289.516 493.165,290.552 497.997,292.623C502.829,294.694 506.445,297.41 508.846,300.771C511.247,304.133 512.928,308.124 513.889,312.746C514.489,315.748 514.789,321 514.789,328.503L514.789,387.298L498.582,387.298L498.582,329.133C498.582,322.531 497.952,317.593 496.691,314.322C495.431,311.051 493.195,308.439 489.983,306.489C486.772,304.538 483.005,303.562 478.683,303.562C471.78,303.562 465.823,305.753 460.811,310.135C455.799,314.517 453.292,322.831 453.292,335.076L453.292,387.298L437.085,387.298Z" style="fill-rule:nonzero;"/>
            </g>
        </g>
    </g>
</svg>
